<svg xmlns="http://www.w3.org/2000/svg" viewBox="0 0 16.15 14.7"><defs><style>.cls-1{fill:#28cacb;}</style></defs><g id="Capa_2" data-name="Capa 2"><g id="Capa_1-2" data-name="Capa 1"><path class="cls-1" d="M8.82,5.9H7.32A.94.94,0,0,1,6.38,5L6.09.34A.34.34,0,0,1,6.18.1.33.33,0,0,1,6.41,0H9.74A.33.33,0,0,1,10,.1a.3.3,0,0,1,.08.24L9.77,5A.94.94,0,0,1,8.82,5.9ZM6.75.63,7,5a.32.32,0,0,0,.31.3h1.5A.32.32,0,0,0,9.14,5L9.4.63Z"/><path class="cls-1" d="M14.88,14.7H1.27A1.27,1.27,0,0,1,0,13.43V4.77A1.27,1.27,0,0,1,1.27,3.5H6.62a.32.32,0,0,1,.32.3L7,5a.32.32,0,0,0,.31.3h1.5A.32.32,0,0,0,9.14,5L9.21,3.8a.32.32,0,0,1,.32-.3h5.35a1.27,1.27,0,0,1,1.27,1.27V7.09a.32.32,0,0,1-.32.32.32.32,0,0,1-.32-.32V4.77a.63.63,0,0,0-.63-.63H9.83L9.77,5a.94.94,0,0,1-.95.89H7.32A.94.94,0,0,1,6.38,5l-.06-.87H1.27a.64.64,0,0,0-.64.63v8.66a.64.64,0,0,0,.64.63H14.88a.63.63,0,0,0,.63-.63V12.32a.32.32,0,0,1,.32-.32.32.32,0,0,1,.32.32v1.11A1.27,1.27,0,0,1,14.88,14.7Z"/><path class="cls-1" d="M15.83,12.64a.33.33,0,0,1-.32-.32v-.79a.32.32,0,0,1,.32-.32.32.32,0,0,1,.32.32v.79A.32.32,0,0,1,15.83,12.64Z"/><path class="cls-1" d="M15.83,10.63a.32.32,0,0,1-.32-.32V9.1a.32.32,0,0,1,.32-.32.32.32,0,0,1,.32.32v1.21A.32.32,0,0,1,15.83,10.63Z"/><path class="cls-1" d="M15.83,8.2a.32.32,0,0,1-.32-.32V7.09a.33.33,0,0,1,.32-.32.32.32,0,0,1,.32.32v.79A.32.32,0,0,1,15.83,8.2Z"/><path class="cls-1" d="M4.57,9.56A1.71,1.71,0,1,1,6.28,7.85,1.71,1.71,0,0,1,4.57,9.56Zm0-2.79A1.08,1.08,0,1,0,5.65,7.85,1.08,1.08,0,0,0,4.57,6.77Z"/><path class="cls-1" d="M7.22,13H1.93a.32.32,0,0,1-.32-.32V11.13A1.67,1.67,0,0,1,3.27,9.47h.08a.66.66,0,0,1,.52.24l.7.92.69-.91a.71.71,0,0,1,.54-.25h.08a1.67,1.67,0,0,1,1.66,1.66v1.55A.32.32,0,0,1,7.22,13Zm-5-.64H6.9V11.13a1,1,0,0,0-1-1H5.76l-.93,1.23a.33.33,0,0,1-.51,0L3.38,10.1s0,0,0,0H3.27a1,1,0,0,0-1,1Z"/><path class="cls-1" d="M13.81,8.48H9.25a.32.32,0,1,1,0-.63h4.56a.32.32,0,1,1,0,.63Z"/><path class="cls-1" d="M13.81,10H9.25a.32.32,0,0,1-.32-.32.32.32,0,0,1,.32-.32h4.56a.32.32,0,0,1,.32.32A.32.32,0,0,1,13.81,10Z"/><path class="cls-1" d="M13.81,11.51H9.25a.32.32,0,1,1,0-.63h4.56a.32.32,0,1,1,0,.63Z"/></g></g></svg>